<svg width="64" height="64" viewBox="0 0 64 64" fill="none" xmlns="http://www.w3.org/2000/svg">
<g clip-path="url(#clip0_1_3358)">
<path d="M29.5455 55H13.0455V8.45454H29.6818C34.3636 8.45454 38.3939 9.38636 41.7727 11.25C45.1515 13.0985 47.75 15.7576 49.5682 19.2273C51.4015 22.697 52.3182 26.8485 52.3182 31.6818C52.3182 36.5303 51.4015 40.697 49.5682 44.1818C47.75 47.6667 45.1364 50.3409 41.7273 52.2045C38.3333 54.0682 34.2727 55 29.5455 55ZM22.8864 46.5682H29.1364C32.0455 46.5682 34.4924 46.053 36.4773 45.0227C38.4773 43.9773 39.9773 42.3636 40.9773 40.1818C41.9924 37.9848 42.5 35.1515 42.5 31.6818C42.5 28.2424 41.9924 25.4318 40.9773 23.25C39.9773 21.0682 38.4848 19.4621 36.5 18.4318C34.5152 17.4015 32.0682 16.8864 29.1591 16.8864H22.8864V46.5682Z" fill="#6366F1"/>
</g>
<defs>
<clipPath id="clip0_1_3358">
<rect width="64" height="64" fill="white"/>
</clipPath>
</defs>
</svg>
